<?xml version="1.0" encoding="UTF-8" standalone="no"?>
<!-- Created with Inkscape (http://www.inkscape.org/) -->

<svg
   width="80"
   height="80"
   viewBox="0 0 80 80"
   version="1.1"
   id="svg5"
   xmlns:xlink="http://www.w3.org/1999/xlink"
   xmlns="http://www.w3.org/2000/svg"
   xmlns:svg="http://www.w3.org/2000/svg">
  <defs
     id="defs2">
    <linearGradient
       id="linearGradient1180">
      <stop
         style="stop-color:#06bcc1;stop-opacity:1;"
         offset="0"
         id="stop1176" />
      <stop
         style="stop-color:#027bce;stop-opacity:1;"
         offset="1"
         id="stop1178" />
    </linearGradient>
    <linearGradient
       id="linearGradient1040">
      <stop
         style="stop-color:#06bcc1;stop-opacity:1;"
         offset="0"
         id="stop1036" />
      <stop
         style="stop-color:#027bce;stop-opacity:1;"
         offset="1"
         id="stop1038" />
    </linearGradient>
    <linearGradient
       xlink:href="#linearGradient1040"
       id="linearGradient1042"
       x1="27.190214"
       y1="27.28796"
       x2="54.798523"
       y2="52.57048"
       gradientUnits="userSpaceOnUse" />
    <linearGradient
       xlink:href="#linearGradient1180"
       id="linearGradient1174"
       x1="75.088028"
       y1="70.333084"
       x2="7.2570262"
       y2="10.849796"
       gradientUnits="userSpaceOnUse" />
  </defs>
  <g
     id="layer2">
    <circle
       style="fill:#ffffff;fill-opacity:1;stroke:url(#linearGradient1174);stroke-width:3;stroke-dasharray:none;stroke-opacity:1"
       id="path2862-3"
       cx="40"
       cy="40"
       r="38" />
    <circle
       style="fill:none;fill-opacity:1;stroke:url(#linearGradient1042);stroke-width:3;stroke-dasharray:none;stroke-opacity:1"
       id="path2862"
       cx="40"
       cy="40"
       r="15" />
  </g>
  <g
     id="layer1">
    <g
       aria-label="themetar"
       transform="rotate(-5.1121706,39.603247,39.323132)"
       id="text1013"
       style="font-size:18.6667px;letter-spacing:3.38px;vector-effect:non-scaling-stroke;-inkscape-stroke:hairline">
      <path
         d="m 24.411592,56.820315 1.546011,-2.221694 1.333016,0.927606 q 1.424948,0.991579 1.741897,2.235502 0.306287,1.259244 -0.791914,2.837413 l -2.366995,3.401489 1.041898,0.725026 -1.514024,2.175728 -1.041898,-0.725026 -1.450051,2.083795 -2.620066,-1.823226 1.450051,-2.083795 -1.716067,-1.19416 1.514024,-2.175727 1.716067,1.194159 2.388319,-3.432133 q 0.266554,-0.383051 0.199973,-0.679539 -0.06658,-0.296488 -0.495597,-0.595028 z"
         style="font-family:Poppins;-inkscape-font-specification:Poppins"
         id="path5996" />
      <path
         d="m 10.377886,47.492235 q -0.5114243,-1.717475 0.324574,-3.096066 0.818108,-1.373263 2.803939,-1.964597 l 5.83226,-1.73671 0.905646,3.041363 -5.420782,1.614181 q -1.00186,0.298331 -1.401969,0.982299 -0.400109,0.683968 -0.139069,1.560596 0.261039,0.876628 0.970133,1.230301 0.709094,0.353673 1.710954,0.05534 l 5.420782,-1.614181 0.910973,3.059252 -13.2388716,3.942225 -0.9109736,-3.059253 4.5978242,-1.369124 q -0.800454,-0.268038 -1.433772,-0.955903 -0.633318,-0.687865 -0.931648,-1.689726 z"
         style="font-family:Poppins;-inkscape-font-specification:Poppins"
         id="path5998" />
      <path
         d="m 19.931688,23.611516 q 0.397045,0.207507 0.80124,0.481938 l -3.34606,6.402362 q 0.89485,0.383426 1.608809,0.145755 0.706061,-0.262862 1.077845,-0.974235 0.553354,-1.058789 -0.123845,-1.93927 l 1.573599,-3.010931 q 0.78885,0.707149 1.19686,1.699691 0.416656,0.976 0.354707,2.10205 -0.06195,1.12605 -0.649887,2.251013 -0.708985,1.356573 -1.841363,2.112746 -1.132379,0.756174 -2.518972,0.789743 -1.386594,0.03357 -2.825885,-0.718646 -1.439291,-0.752215 -2.212008,-1.89324 -0.764071,-1.157568 -0.789742,-2.518972 -0.02567,-1.361404 0.691959,-2.734521 0.700338,-1.340029 1.807527,-2.088305 1.107189,-0.748276 2.452049,-0.782594 1.353507,-0.05086 2.743167,0.675416 z m -2.257537,2.506048 q -0.727917,-0.38043 -1.417435,-0.108923 -0.689517,0.271507 -1.078594,1.015968 -0.371784,0.711374 -0.217579,1.423834 0.16285,0.695918 0.863332,1.209446 z"
         style="font-family:Poppins;-inkscape-font-specification:Poppins"
         id="path6000" />
      <path
         d="m 40.305129,9.1318108 q 1.92276,-0.2679209 3.212831,0.7396822 1.308559,1.005027 1.59709,3.075692 l 0.839829,6.027114 -3.142974,0.437947 -0.780577,-5.601888 q -0.139113,-0.998356 -0.749976,-1.459802 -0.594951,-0.482509 -1.519355,-0.353701 -0.924404,0.128808 -1.383274,0.758159 -0.442957,0.608287 -0.303844,1.606643 l 0.780577,5.601888 -3.142974,0.437948 -0.780577,-5.601888 q -0.139113,-0.998356 -0.749976,-1.459802 -0.594951,-0.48251 -1.519355,-0.353702 -0.924404,0.128808 -1.383273,0.758159 -0.442958,0.608287 -0.303845,1.606644 l 0.780577,5.601888 -3.161461,0.440524 -1.437499,-10.316349 3.161462,-0.440524 0.180331,1.294166 q 0.390524,-0.714063 1.115501,-1.192024 0.722399,-0.496448 1.702268,-0.632985 1.164749,-0.1622979 2.140221,0.210648 0.99396,0.37037 1.640435,1.222642 0.417651,-0.925161 1.267346,-1.5901231 0.849695,-0.6649625 1.940492,-0.8169561 z"
         style="font-family:Poppins;-inkscape-font-specification:Poppins"
         id="path6002" />
      <path
         d="m 62.014447,26.329908 q -0.325124,0.308219 -0.71587,0.601481 l -4.970021,-5.242638 q -0.653068,0.721994 -0.659949,1.474441 0.01951,0.753152 0.571732,1.335667 0.821915,0.867 1.874507,0.51218 l 2.337322,2.46553 q -0.924872,0.516678 -1.996104,0.580511 -1.05839,0.07738 -2.103395,-0.346638 -1.045005,-0.424017 -1.918291,-1.345204 -1.053079,-1.110843 -1.400854,-2.427328 -0.347775,-1.316485 0.07044,-2.63893 0.418219,-1.322445 1.596796,-2.439737 1.178578,-1.117291 2.50861,-1.477909 1.342874,-0.34707 2.63893,0.07044 1.296056,0.417515 2.361977,1.541905 1.040237,1.097296 1.388717,2.387392 0.348479,1.290095 -0.05549,2.573309 -0.391125,1.29676 -1.529063,2.375524 z m -1.637816,-2.948611 q 0.596062,-0.565067 0.563008,-1.305376 -0.03305,-0.74031 -0.610964,-1.349919 -0.552224,-0.582515 -1.276169,-0.667861 -0.711102,-0.0718 -1.424155,0.424126 z"
         style="font-family:Poppins;-inkscape-font-specification:Poppins"
         id="path6004" />
      <path
         d="m 62.924755,40.592121 -2.689222,0.306846 -0.184108,-1.613533 q -0.196805,-1.724812 0.52774,-2.784451 0.743091,-1.061755 2.653366,-1.279721 l 4.117292,-0.469792 -0.1439,-1.261153 2.633583,-0.300497 0.143901,1.261152 2.522305,-0.2878 0.361866,3.171427 -2.522305,0.287801 0.237013,2.077192 -2.633584,0.300498 -0.237012,-2.077193 -4.154385,0.474025 q -0.463659,0.0529 -0.642274,0.298738 -0.178616,0.245835 -0.119363,0.765133 z"
         style="font-family:Poppins;-inkscape-font-specification:Poppins"
         id="path6006" />
      <path
         d="m 64.444057,48.531323 q 1.358234,0.855747 2.066389,2.007923 0.698204,1.167969 0.693743,2.40067 -0.0045,1.232701 -0.691049,2.322447 -0.587083,0.931812 -1.40395,1.387909 -0.826817,0.471891 -1.681573,0.462861 l 1.24768,0.786094 -1.701545,2.700675 -8.812729,-5.552409 1.701544,-2.700675 1.247681,0.786094 q -0.36718,-0.782907 -0.298447,-1.732425 0.05878,-0.933723 0.645865,-1.865535 0.676637,-1.073953 1.786638,-1.610115 1.125794,-0.526212 2.480735,-0.400609 1.360784,0.151347 2.719018,1.007095 z m -4.175125,6.5917 q 1.010779,0.636835 1.953356,0.436442 0.932626,-0.184599 1.440104,-0.990064 0.507478,-0.805464 0.281342,-1.742198 -0.220294,-0.910989 -1.231073,-1.547825 -1.010779,-0.636835 -1.959199,-0.462187 -0.942576,0.200393 -1.450055,1.005858 -0.507478,0.805464 -0.271391,1.726404 0.226137,0.936734 1.236916,1.57357 z"
         style="font-family:Poppins;-inkscape-font-specification:Poppins"
         id="path6008" />
      <path
         d="m 48.767395,67.309548 q -0.258343,0.992054 -0.900747,1.719012 -0.636477,0.74466 -1.610005,1.070681 l -1.072908,-3.203794 0.831924,-0.2786 q 1.132834,-0.379371 1.533275,-1.064671 0.40637,-0.6676 -0.0026,-1.888936 l -1.535266,-4.584435 3.026789,-1.013631 3.307639,9.876891 -3.026789,1.013631 z"
         style="font-family:Poppins;-inkscape-font-specification:Poppins"
         id="path6010" />
    </g>
  </g>
</svg>
